<svg id="Capa_1" enable-background="new 0 0 512 512" height="512" viewBox="0 0 512 512" width="512" xmlns="http://www.w3.org/2000/svg"><g><path d="m512 256c0 33.27-6.35 65.06-17.9 94.22-11.171 28.208-48.914 32.257-68.788 54.515-25.689 28.77-36.079 73.404-72.332 88.255-29.91 12.25-62.66 19.01-96.98 19.01s-67.07-6.76-96.98-19.01c-64.3-26.34-115.51-78.1-141.12-142.77-11.55-29.16-17.9-60.95-17.9-94.22 0-141.38 114.62-256 256-256s256 114.62 256 256z" fill="#95d6a4"/><path d="m394.34 195.405h-276.68v-105.887c0-40.431 32.894-73.324 73.324-73.324h130.032c40.431 0 73.324 32.893 73.324 73.324zm-236.68-40h196.68v-65.887c0-18.375-14.949-33.324-33.324-33.324h-130.032c-18.375 0-33.324 14.949-33.324 33.324z" fill="#8b5e5e"/><g fill="#785252"><path d="m211.856 16.193h-20.498c-40.431 0-73.324 32.893-73.324 73.324v105.887h20.498v-105.886c0-40.432 32.893-73.325 73.324-73.325z"/><path d="m341.888 56.193h-20.498c18.375 0 33.324 14.949 33.324 33.324v65.887h20.498v-65.886c0-18.375-14.949-33.325-33.324-33.325z"/></g><g><path d="m494.1 235.89v114.33c-25.61 64.67-76.82 116.43-141.12 142.77h-247.67c-48.28 0-87.41-39.13-87.41-87.4v-169.7c0-48.28 39.13-87.41 87.41-87.41h301.38c48.28 0 87.41 39.13 87.41 87.41z" fill="#8b5e5e"/><path d="m189.131 492.987h-83.83c-48.27 0-87.4-39.13-87.4-87.4v-169.7c0-48.28 39.13-87.41 87.4-87.41h83.83c-48.28 0-87.41 39.13-87.41 87.41v169.7c0 48.27 39.13 87.4 87.41 87.4z" fill="#785252"/><g><path d="m378.765 139.17h-245.53c-39.327 0-71.207 31.881-71.207 71.207v93.247c0 39.327 31.881 71.207 71.207 71.207h245.531c39.327 0 71.207-31.881 71.207-71.207v-93.247c0-39.326-31.881-71.207-71.208-71.207z" fill="#785252"/><path d="m378.765 115.227h-245.53c-39.327 0-71.207 31.881-71.207 71.207v93.247c0 39.327 31.881 71.207 71.207 71.207h245.531c39.327 0 71.207-31.881 71.207-71.207v-93.247c0-39.326-31.881-71.207-71.208-71.207z" fill="#9d6b6b"/><path d="m210.387 350.892h-77.15c-39.33 0-71.21-31.88-71.21-71.21v-93.247c0-39.32 31.88-71.2 71.21-71.2h77.15c-39.33 0-71.21 31.88-71.21 71.2v93.247c0 39.33 31.88 71.21 71.21 71.21z" fill="#8b5e5e"/><path d="m285.934 418.062h-59.868c-14.139 0-25.6-11.462-25.6-25.6v-59.868c0-14.139 11.462-25.6 25.6-25.6h59.868c14.139 0 25.6 11.462 25.6 25.6v59.868c0 14.138-11.461 25.6-25.6 25.6z" fill="#f5dd62"/><g fill="#eebe61"><path d="m271.774 391.791h-31.547c-7.45 0-13.49-6.04-13.49-13.49v-31.547c0-7.45 6.04-13.49 13.49-13.49h31.547c7.45 0 13.49 6.04 13.49 13.49v31.547c0 7.451-6.04 13.49-13.49 13.49z"/><path d="m242.826 418.054h-16.76c-14.14 0-25.6-11.46-25.6-25.6v-59.86c0-14.14 11.46-25.6 25.6-25.6h16.76c-14.14 0-25.6 11.46-25.6 25.6v59.86c-.001 14.14 11.459 25.6 25.6 25.6z"/></g></g></g></g></svg>